<svg width="80" height="80" viewBox="0 0 80 80" fill="none" xmlns="http://www.w3.org/2000/svg">
<path d="M30 5C30 7.76562 32.2344 10 35 10C54.3281 10 70 25.6719 70 45C70 47.7656 72.2344 50 75 50C77.7656 50 80 47.7656 80 45C80 20.1406 59.8594 0 35 0C32.2344 0 30 2.23438 30 5ZM30 20C30 22.7656 32.2344 25 35 25C46.0469 25 55 33.9531 55 45C55 47.7656 57.2344 50 60 50C62.7656 50 65 47.7656 65 45C65 28.4375 51.5625 15 35 15C32.2344 15 30 17.2344 30 20ZM15 22.5C15 18.3594 11.6406 15 7.5 15C3.35938 15 0 18.3594 0 22.5V57.5C0 69.9219 10.0781 80 22.5 80C34.9219 80 45 69.9219 45 57.5C45 45.0781 34.9219 35 22.5 35H20V50H22.5C26.6406 50 30 53.3594 30 57.5C30 61.6406 26.6406 65 22.5 65C18.3594 65 15 61.6406 15 57.5V22.5Z" fill="white"/>
</svg>
