<svg width="86" height="86" viewBox="0 0 86 86" fill="none" xmlns="http://www.w3.org/2000/svg">
<path d="M83 28.4545L43 68.4545L21.1818 46.6364L3 64.8182M3 3H83V83H3V3ZM21.1818 21.1091H21.2545V21.1818H21.1818V21.1091ZM24.8182 21.1091C24.8182 22.0735 24.4351 22.9984 23.7531 23.6804C23.0712 24.3623 22.1462 24.7455 21.1818 24.7455C20.2174 24.7455 19.2925 24.3623 18.6105 23.6804C17.9286 22.9984 17.5455 22.0735 17.5455 21.1091C17.5455 20.1447 17.9286 19.2197 18.6105 18.5378C19.2925 17.8558 20.2174 17.4727 21.1818 17.4727C22.1462 17.4727 23.0712 17.8558 23.7531 18.5378C24.4351 19.2197 24.8182 20.1447 24.8182 21.1091Z" stroke="white" stroke-width="6" stroke-linejoin="round"/>
</svg>
