<svg width="77" height="80" viewBox="0 0 77 80" fill="none" xmlns="http://www.w3.org/2000/svg">
<path d="M73.0278 0C74.0471 0 75.0248 0.404946 75.7456 1.12575C76.4664 1.84656 76.8713 2.82419 76.8713 3.84357C76.8713 4.86294 76.4664 5.84057 75.7456 6.56138C75.0248 7.28219 74.0471 7.68713 73.0278 7.68713V49.9664C73.0278 52.0051 72.2179 53.9604 70.7763 55.402C69.3346 56.8436 67.3794 57.6535 65.3406 57.6535H45.9114L54.7247 66.4668C55.4248 67.1917 55.8123 68.1626 55.8035 69.1704C55.7947 70.1781 55.3905 71.1422 54.6779 71.8548C53.9653 72.5674 53.0012 72.9716 51.9935 72.9804C50.9857 72.9892 50.0148 72.6017 49.2899 71.9016L38.4203 61.032L27.5468 71.9016C26.8219 72.6017 25.851 72.9892 24.8433 72.9804C23.8355 72.9716 22.8715 72.5674 22.1589 71.8548C21.4462 71.1422 21.042 70.1781 21.0333 69.1704C21.0245 68.1626 21.4119 67.1917 22.112 66.4668L30.9253 57.6535H11.5307C9.49195 57.6535 7.53669 56.8436 6.09508 55.402C4.65346 53.9604 3.84357 52.0051 3.84357 49.9664V7.68713C2.82419 7.68713 1.84656 7.28219 1.12575 6.56138C0.404946 5.84057 0 4.86294 0 3.84357C0 2.82419 0.404946 1.84656 1.12575 1.12575C1.84656 0.404946 2.82419 0 3.84357 0H73.0278ZM65.3406 7.68713H11.5307V49.9664H65.3406V7.68713ZM23.0614 30.7485C24.0028 30.7487 24.9115 31.0943 25.615 31.7199C26.3185 32.3454 26.7679 33.2075 26.8781 34.1424L26.905 34.5921V38.4357C26.9039 39.4153 26.5288 40.3576 25.8563 41.0699C25.1838 41.7823 24.2646 42.211 23.2867 42.2684C22.3087 42.3258 21.3457 42.0076 20.5945 41.3788C19.8432 40.7501 19.3604 39.8582 19.2447 38.8854L19.2178 38.4357V34.5921C19.2178 33.5727 19.6228 32.5951 20.3436 31.8743C21.0644 31.1535 22.042 30.7485 23.0614 30.7485ZM38.4357 23.0614C39.455 23.0614 40.4327 23.4663 41.1535 24.1872C41.8743 24.908 42.2792 25.8856 42.2792 26.905V38.4357C42.2792 39.455 41.8743 40.4327 41.1535 41.1535C40.4327 41.8743 39.455 42.2792 38.4357 42.2792C37.4163 42.2792 36.4387 41.8743 35.7179 41.1535C34.997 40.4327 34.5921 39.455 34.5921 38.4357V26.905C34.5921 25.8856 34.997 24.908 35.7179 24.1872C36.4387 23.4663 37.4163 23.0614 38.4357 23.0614ZM53.8099 15.3743C54.7514 15.3744 55.66 15.72 56.3635 16.3456C57.067 16.9712 57.5165 17.8332 57.6266 18.7681L57.6535 19.2178V38.4357C57.6524 39.4153 57.2773 40.3576 56.6048 41.0699C55.9323 41.7823 55.0132 42.211 54.0352 42.2684C53.0572 42.3258 52.0942 42.0076 51.343 41.3788C50.5918 40.7501 50.109 39.8582 49.9933 38.8854L49.9664 38.4357V19.2178C49.9664 18.1985 50.3713 17.2208 51.0921 16.5C51.8129 15.7792 52.7906 15.3743 53.8099 15.3743Z" fill="white"/>
</svg>
