<svg width="86" height="86" viewBox="0 0 86 86" fill="none" xmlns="http://www.w3.org/2000/svg">
<path d="M3 32.4738H83M3 32.4738V78.7896C3 79.9063 3.44361 80.9773 4.23323 81.7669C5.02286 82.5565 6.09383 83.0001 7.21053 83.0001H78.7895C79.9062 83.0001 80.9771 82.5565 81.7668 81.7669C82.5564 80.9773 83 79.9063 83 78.7896V32.4738M3 32.4738V13.5264C3 12.4097 3.44361 11.3388 4.23323 10.5492C5.02286 9.75953 6.09383 9.31592 7.21053 9.31592H78.7895C79.9062 9.31592 80.9771 9.75953 81.7668 10.5492C82.5564 11.3388 83 12.4097 83 13.5264V32.4738" stroke="white" stroke-width="6" stroke-linejoin="round"/>
<path d="M26.1577 57.737L38.7893 70.3686L64.0525 45.1055" stroke="white" stroke-width="6" stroke-linecap="round" stroke-linejoin="round"/>
<path d="M26.1577 3V19.8421M59.8419 3V19.8421" stroke="white" stroke-width="6" stroke-linecap="round"/>
</svg>
