<svg width="80" height="80" viewBox="0 0 80 80" fill="none" xmlns="http://www.w3.org/2000/svg">
<path d="M33.6107 55.687L18.1816 40.2543L23.3235 35.1125L33.6107 45.3961L54.178 24.8252L59.3235 29.9706L33.6107 55.687Z" fill="white"/>
<path fill-rule="evenodd" clip-rule="evenodd" d="M0 40C0 17.9091 17.9091 0 40 0C62.0909 0 80 17.9091 80 40C80 62.0909 62.0909 80 40 80C17.9091 80 0 62.0909 0 40ZM40 72.7273C35.7022 72.7273 31.4465 71.8808 27.4758 70.2361C23.5052 68.5914 19.8973 66.1807 16.8583 63.1417C13.8193 60.1027 11.4086 56.4948 9.76394 52.5242C8.11924 48.5535 7.27273 44.2978 7.27273 40C7.27273 35.7022 8.11924 31.4465 9.76394 27.4758C11.4086 23.5052 13.8193 19.8973 16.8583 16.8583C19.8973 13.8193 23.5052 11.4086 27.4758 9.76394C31.4465 8.11924 35.7022 7.27273 40 7.27273C48.6798 7.27273 57.0041 10.7208 63.1417 16.8583C69.2792 22.9959 72.7273 31.3202 72.7273 40C72.7273 48.6798 69.2792 57.0041 63.1417 63.1417C57.0041 69.2792 48.6798 72.7273 40 72.7273Z" fill="white"/>
</svg>
