<svg width="63" height="80" viewBox="0 0 63 80" fill="none" xmlns="http://www.w3.org/2000/svg">
<path d="M11.6101 0H29.4017C33.4768 0 35.7829 0.589055 38.4885 3.23184L38.8033 3.54388L59.4794 24.4776C62.372 27.4324 62.96 29.4814 62.9968 33.9518L63 68.3208C63 75.926 59.294 79.8424 51.8485 79.9952L51.3883 80H11.6117C4.04957 80 0.156613 76.273 0.00479469 68.7841L0 68.3208V11.7158C0 4.11065 3.73954 0.159204 11.1531 0.00477615L11.6101 0ZM28.5787 6.00677H11.9457C8.17744 6.00677 6.16065 8 6.0344 11.4754L6.02801 11.8289V68.2094C6.02801 71.8201 7.92334 73.8579 11.5414 73.9853L11.909 73.9932H51.0878C54.8561 73.9932 56.8378 72.0701 56.9608 68.5644L56.9672 68.2094V34.7017H35.6167C31.1069 34.7017 28.7145 32.519 28.5819 28.0836L28.5771 27.6856L28.5787 6.00677ZM48.28 42.837C48.8792 43.4341 49.2158 44.2439 49.2158 45.0882C49.2158 45.9325 48.8792 46.7422 48.28 47.3393L26.5683 68.9688C25.9689 69.5657 25.1561 69.901 24.3086 69.901C23.4611 69.901 22.6483 69.5657 22.0489 68.9688L11.5238 58.4836C10.9416 57.8831 10.6195 57.0788 10.6268 56.2439C10.634 55.409 10.9702 54.6104 11.5628 54.0201C12.1554 53.4297 12.957 53.0949 13.7951 53.0876C14.6331 53.0804 15.4404 53.4013 16.0432 53.9813L22.0489 59.9626L24.2047 62.0211L26.5683 59.9626L43.759 42.837C44.0558 42.5412 44.4082 42.3066 44.796 42.1465C45.1839 41.9864 45.5996 41.904 46.0195 41.904C46.4393 41.904 46.855 41.9864 47.2429 42.1465C47.6308 42.3066 47.9832 42.5412 48.28 42.837ZM34.2327 7.16418V26.9771C34.2327 28.3829 34.7649 28.9942 36.045 29.0611L36.2943 29.0675H55.807L34.2327 7.16418Z" fill="white"/>
</svg>
